<svg xmlns="http://www.w3.org/2000/svg" width="30" height="29" viewBox="0 0 30 29"><g fill="none" fill-rule="evenodd"><path fill="#FFF" d="M-1245-29H195v82h-1440z"/><path fill="#222" fill-rule="nonzero" d="M27.857 23.893a.551.551 0 0 1-.536.536H2.68a.551.551 0 0 1-.536-.536V11.036c.35.402.737.769 1.155 1.105 2.394 1.84 4.804 3.716 7.13 5.658 1.257 1.054 2.813 2.344 4.557 2.344h.032c1.74 0 3.298-1.29 4.552-2.344a229.65 229.65 0 0 1 7.133-5.658 8.95 8.95 0 0 0 1.155-1.107v12.86h-.002zm0-17.595c0 1.423-1.373 3.281-2.46 4.134-2.245 1.76-4.482 3.529-6.713 5.307-.89.723-2.497 2.261-3.669 2.261h-.034c-1.172 0-2.778-1.54-3.665-2.26-2.23-1.777-4.468-3.546-6.713-5.306-1.507-1.19-2.462-2.848-2.462-4.755 0-.285.251-.536.537-.536h24.64c.638 0 .537.737.537 1.155h.002zM30 5.68A2.687 2.687 0 0 0 27.32 3H2.682A2.688 2.688 0 0 0 0 5.68v18.213a2.686 2.686 0 0 0 2.68 2.678h24.639a2.686 2.686 0 0 0 2.68-2.678V5.68H30z"/></g></svg>