<svg xmlns="http://www.w3.org/2000/svg" width="30" height="29" viewBox="0 0 30 29">
  <g fill="none" fill-rule="evenodd" transform="translate(-1245 -29)">
    <rect width="1440" height="82" fill="#FFF"/>
    <path fill="#222" fill-rule="nonzero" d="M1272.85687,52.893125 C1272.84901,53.1859677 1272.61347,53.4215092 1272.32063,53.429375 L1247.68125,53.429375 C1247.38841,53.4215092 1247.15287,53.1859677 1247.145,52.893125 L1247.145,40.03625 C1247.49563,40.4375 1247.88188,40.805 1248.3,41.140625 C1250.69438,42.981875 1253.10375,44.856875 1255.43062,46.799375 C1256.68688,47.853125 1258.24312,49.143125 1259.98688,49.143125 L1260.01875,49.143125 C1261.75875,49.143125 1263.31687,47.853125 1264.57125,46.799375 C1266.91112,44.8661774 1269.28909,42.9795567 1271.70375,41.140625 C1272.12188,40.805 1272.50813,40.4375 1272.85875,40.034375 L1272.85875,52.893125 L1272.85687,52.893125 Z M1272.85687,35.298125 C1272.85687,36.72125 1271.48438,38.579375 1270.39687,39.4325 C1268.15209,41.1920208 1265.91458,42.9607858 1263.68437,44.73875 C1262.79375,45.4625 1261.18688,47 1260.015,47 L1259.98125,47 C1258.80938,47 1257.2025,45.460625 1256.31562,44.740625 C1254.08542,42.9626609 1251.84791,41.1938958 1249.60313,39.434375 C1248.09563,38.24375 1247.14125,36.58625 1247.14125,34.679375 C1247.14125,34.394375 1247.3925,34.143125 1247.6775,34.143125 L1272.31875,34.143125 C1272.95625,34.143125 1272.855,34.88 1272.855,35.298125 L1272.85687,35.298125 Z M1275,34.679375 C1275,33.205625 1273.79437,32 1272.32063,32 L1247.68125,32 C1246.20563,32 1245,33.205625 1245,34.679375 L1245,52.893125 C1245,54.366875 1246.20563,55.570625 1247.67937,55.570625 L1272.31875,55.570625 C1273.7925,55.570625 1274.99813,54.366875 1274.99813,52.893125 L1274.99813,34.679375 L1275,34.679375 Z"/>
  </g>
</svg>
