<svg xmlns="http://www.w3.org/2000/svg" width="29" height="29" viewBox="0 0 29 29">
  <g fill="none" fill-rule="evenodd" transform="translate(-1295 -29)">
    <rect width="1440" height="82" fill="#FFF"/>
    <path fill="#222" d="M1309.50003,29 C1305.56204,29 1305.06825,29.0166923 1303.52167,29.0872602 C1301.97831,29.1576556 1300.92426,29.4028016 1300.00195,29.7612824 C1299.04845,30.1317931 1298.23982,30.6276109 1297.43366,31.4337321 C1296.62756,32.2399109 1296.13176,33.0485647 1295.76126,34.0020959 C1295.40279,34.9244299 1295.15765,35.9785176 1295.08726,37.5219188 C1295.01669,39.0685434 1295,39.5623466 1295,43.5004546 C1295,47.4385051 1295.01669,47.9323083 1295.08726,49.4789329 C1295.15765,51.0223342 1295.40279,52.0764219 1295.76126,52.9987558 C1296.13176,53.952287 1296.62756,54.7609408 1297.43366,55.5671196 C1298.23982,56.3732409 1299.04845,56.8690587 1300.00195,57.2396269 C1300.92426,57.5980501 1301.97831,57.8431962 1303.52167,57.9135915 C1305.06825,57.9841594 1305.56204,58.0008517 1309.50003,58.0008517 C1313.43796,58.0008517 1313.93175,57.9841594 1315.47833,57.9135915 C1317.02169,57.8431962 1318.07574,57.5980501 1318.99805,57.2396269 C1319.95155,56.8690587 1320.76018,56.3732409 1321.56634,55.5671196 C1322.37244,54.7609408 1322.86824,53.952287 1323.2388,52.9987558 C1323.59721,52.0764219 1323.84235,51.0223342 1323.91274,49.4789329 C1323.98331,47.9323083 1324,47.4385051 1324,43.5004546 C1324,39.5623466 1323.98331,39.0685434 1323.91274,37.5219188 C1323.84235,35.9785176 1323.59721,34.9244299 1323.2388,34.0020959 C1322.86824,33.0485647 1322.37244,32.2399109 1321.56634,31.4337321 C1320.76018,30.6276109 1319.95155,30.1317931 1318.99805,29.7612824 C1318.07574,29.4028016 1317.02169,29.1576556 1315.47833,29.0872602 C1313.93175,29.0166923 1313.43796,29 1309.50003,29 Z M1309.50003,31.6126847 C1313.37166,31.6126847 1313.83028,31.6274775 1315.35924,31.6972396 C1316.77298,31.7617063 1317.54074,31.9979306 1318.05168,32.196511 C1318.72851,32.4595581 1319.21153,32.7737755 1319.71891,33.2812204 C1320.22634,33.7886076 1320.54054,34.2716472 1320.80358,34.9484897 C1321.00216,35.4594457 1321.23837,36.2272323 1321.30284,37.6410095 C1321.3726,39.1700209 1321.38739,39.6286552 1321.38739,43.5004546 C1321.38739,47.3721965 1321.3726,47.8308308 1321.30284,49.3598422 C1321.23837,50.7736194 1321.00216,51.541406 1320.80358,52.052362 C1320.54054,52.7292045 1320.22634,53.2122441 1319.71891,53.7196313 C1319.21153,54.2270762 1318.72851,54.5412937 1318.05168,54.8043407 C1317.54074,55.0029211 1316.77298,55.2391454 1315.35924,55.3036121 C1313.83051,55.3733742 1313.37194,55.388167 1309.50003,55.388167 C1305.62806,55.388167 1305.16955,55.3733742 1303.64076,55.3036121 C1302.22702,55.2391454 1301.45926,55.0029211 1300.94832,54.8043407 C1300.27149,54.5412937 1299.78847,54.2270762 1299.28109,53.7196313 C1298.77372,53.2122441 1298.45946,52.7292045 1298.19642,52.052362 C1297.99784,51.541406 1297.76163,50.7736194 1297.69716,49.3598422 C1297.6274,47.8308308 1297.61261,47.3721965 1297.61261,43.5004546 C1297.61261,39.6286552 1297.6274,39.1700209 1297.69716,37.6410095 C1297.76163,36.2272323 1297.99784,35.4594457 1298.19642,34.9484897 C1298.45946,34.2716472 1298.77366,33.7886076 1299.28109,33.2812204 C1299.78847,32.7737755 1300.27149,32.4595581 1300.94832,32.196511 C1301.45926,31.9979306 1302.22702,31.7617063 1303.64076,31.6972396 C1305.16972,31.6274775 1305.62834,31.6126847 1309.50003,31.6126847 L1309.50003,31.6126847 Z M1309.50003,36.0542659 C1313.61231,36.0542659 1316.94594,39.3879988 1316.94594,43.5004546 C1316.94594,47.6128529 1313.61231,50.9465858 1309.50003,50.9465858 C1305.38769,50.9465858 1302.05406,47.6128529 1302.05406,43.5004546 C1302.05406,39.3879988 1305.38769,36.0542659 1309.50003,36.0542659 Z M1309.50003,48.3339011 C1312.16939,48.3339011 1314.33333,46.169893 1314.33333,43.5004546 C1314.33333,40.8309587 1312.16939,38.6669506 1309.50003,38.6669506 C1306.83061,38.6669506 1304.66667,40.8309587 1304.66667,43.5004546 C1304.66667,46.169893 1306.83061,48.3339011 1309.50003,48.3339011 Z M1318.98015,35.7600791 C1318.98015,36.7210931 1318.20111,37.5001038 1317.24012,37.5001038 C1316.27919,37.5001038 1315.50015,36.7210931 1315.50015,35.7600791 C1315.50015,34.7990652 1316.27919,34.0199969 1317.24012,34.0199969 C1318.20111,34.0199969 1318.98015,34.7990652 1318.98015,35.7600791"/>
  </g>
</svg>
