<svg xmlns="http://www.w3.org/2000/svg" width="29" height="29" viewBox="0 0 29 29"><g fill="none" fill-rule="evenodd"><path fill="#FFF" d="M-1295-29H145v82h-1440z"/><path fill="#222" d="M14.5 0c-3.938 0-4.432.017-5.978.087-1.544.07-2.598.316-3.52.674a7.107 7.107 0 0 0-2.568 1.673A7.107 7.107 0 0 0 .76 5.002C.403 5.924.158 6.98.087 8.522.017 10.069 0 10.562 0 14.5c0 3.939.017 4.432.087 5.979.07 1.543.316 2.597.674 3.52.37.953.867 1.762 1.673 2.568a7.108 7.108 0 0 0 2.568 1.673c.922.358 1.976.603 3.52.674 1.546.07 2.04.087 5.978.087 3.938 0 4.432-.017 5.978-.087 1.544-.07 2.598-.316 3.52-.674a7.108 7.108 0 0 0 2.568-1.673A7.108 7.108 0 0 0 28.24 24c.358-.923.603-1.977.674-3.52.07-1.547.087-2.04.087-5.979 0-3.938-.017-4.431-.087-5.978-.07-1.543-.316-2.598-.674-3.52a7.108 7.108 0 0 0-1.673-2.568A7.107 7.107 0 0 0 23.998.76c-.922-.358-1.976-.603-3.52-.674C18.932.017 18.438 0 14.5 0zm0 2.613c3.872 0 4.33.014 5.86.084 1.413.065 2.18.3 2.692.5.677.263 1.16.577 1.667 1.084.507.508.822.99 1.085 1.667.198.511.434 1.28.499 2.693.07 1.529.084 1.988.084 5.86 0 3.871-.014 4.33-.084 5.859-.065 1.414-.3 2.181-.5 2.692a4.492 4.492 0 0 1-1.084 1.668c-.507.507-.99.821-1.667 1.084-.511.199-1.279.435-2.693.5-1.528.07-1.987.084-5.859.084s-4.33-.015-5.86-.084c-1.413-.065-2.18-.301-2.692-.5a4.492 4.492 0 0 1-1.667-1.084 4.493 4.493 0 0 1-1.085-1.668c-.198-.51-.434-1.278-.499-2.692-.07-1.53-.084-1.988-.084-5.86 0-3.871.014-4.33.084-5.859.065-1.414.3-2.182.5-2.693A4.492 4.492 0 0 1 4.28 4.281c.507-.507.99-.821 1.667-1.084.511-.2 1.279-.435 2.693-.5 1.529-.07 1.987-.084 5.859-.084zm0 4.441a7.446 7.446 0 1 1 0 14.892 7.446 7.446 0 0 1 0-14.892zm0 12.28a4.833 4.833 0 1 0 0-9.667 4.833 4.833 0 0 0 0 9.667zM23.98 6.76a1.74 1.74 0 1 1-3.48 0 1.74 1.74 0 0 1 3.48 0"/></g></svg>