<svg xmlns="http://www.w3.org/2000/svg" width="27" height="29" viewBox="0 0 27 29">
  <g fill="none" fill-rule="evenodd" transform="translate(-1393 -29)">
    <rect width="1440" height="82" fill="#FFF"/>
    <path fill="#222" d="M1416.00711,53.0069234 L1412.00522,53.0069234 L1412.00522,46.7408475 C1412.00522,45.2467015 1411.97785,43.3246924 1409.92422,43.3246924 C1407.84059,43.3246924 1407.52072,44.9523347 1407.52072,46.6328505 L1407.52072,53.0069234 L1403.51958,53.0069234 L1403.51958,40.1219063 L1407.36041,40.1219063 L1407.36041,41.8824824 L1407.41404,41.8824824 C1407.94877,40.8696356 1409.25505,39.8016652 1411.20331,39.8016652 C1415.25844,39.8016652 1416.00711,42.4704661 1416.00711,45.9394947 L1416.00711,53.0069234 Z M1399.00621,38.3605803 C1397.72262,38.3605803 1396.6839,37.3201717 1396.6839,36.0382698 C1396.6839,34.7574928 1397.72262,33.7170842 1399.00621,33.7170842 C1400.28661,33.7170842 1401.32702,34.7574928 1401.32702,36.0382698 C1401.32702,37.3201717 1400.28661,38.3605803 1399.00621,38.3605803 Z M1397.00301,53.0069234 L1401.0079,53.0069234 L1401.0079,40.1219063 L1397.00301,40.1219063 L1397.00301,53.0069234 Z M1418.00149,30 L1394.99288,30 C1393.89341,30 1393,30.8714758 1393,31.945446 L1393,55.0511791 C1393,56.1264618 1393.89341,56.99925 1394.99288,56.99925 L1418.00149,56.99925 C1419.10284,56.99925 1420,56.1264618 1420,55.0511791 L1420,31.945446 C1420,30.8714758 1419.10284,30 1418.00149,30 L1418.00149,30 Z"/>
  </g>
</svg>
