<svg xmlns="http://www.w3.org/2000/svg" width="27" height="29" viewBox="0 0 27 29"><g fill="none" fill-rule="evenodd"><path fill="#FFF" d="M-1393-29H47v82h-1440z"/><path fill="#222" d="M23.007 24.007h-4.002V17.74c0-1.494-.027-3.416-2.08-3.416-2.084 0-2.404 1.627-2.404 3.308v6.374H10.52V11.122h3.84v1.76h.054c.535-1.012 1.841-2.08 3.79-2.08 4.054 0 4.803 2.668 4.803 6.137v7.068zm-17-14.646a2.322 2.322 0 1 1-.001-4.645 2.322 2.322 0 0 1 0 4.645zM4.002 24.007h4.005V11.122H4.003v12.885zM25.001 1H1.993C.893 1 0 1.871 0 2.945v23.106C0 27.126.893 28 1.993 28H25C26.103 28 27 27.126 27 26.051V2.945C27 1.871 26.103 1 25.001 1z"/></g></svg>