<svg xmlns="http://www.w3.org/2000/svg" width="109" height="42" viewBox="0 0 109 42">
  <g fill="#222">
    <path d="M50.1005527,38.9375332 C50.563403,39.789405 51.3681634,40.4792805 52.6830539,40.4792805 C54.9908657,40.4792805 55.7123933,38.4106821 55.8000052,37.0148715 C55.8000052,35.2013345 55.7994071,31.7100142 55.7994071,31.6962593 C55.7994071,27.2672222 56.3274709,23.761549 59.7476252,23.601874 C59.7476252,23.601874 60.1004651,23.5890164 60.2114004,23.5866242 C61.6075098,23.4933309 63.6680347,22.7451908 63.6680347,20.472065 C63.6680347,19.1396287 62.9786231,18.3361021 62.1271746,17.878034 C62.3102078,18.2508854 62.4180347,18.6951133 62.4180347,19.222065 C62.4180347,21.4951908 60.3575098,22.2433309 58.9614004,22.3366242 C58.8504651,22.3390164 58.4976252,22.351874 58.4976252,22.351874 C55.0774709,22.511549 54.5494071,26.0172222 54.5494071,30.4462593 C54.5494071,30.4600142 54.5500052,33.9513345 54.5500052,35.7648715 C54.4623933,37.1606821 53.7408657,39.2292805 51.4330539,39.2292805 C50.9123785,39.2292805 50.4716931,39.1211058 50.1005527,38.9375332 Z M101.411248,38.3809512 C101.42666,38.3974583 101.441925,38.4138223 101.457033,38.4300285 L101.468396,38.4422881 C101.534478,38.512856 101.597571,38.5807329 101.65857,38.6459185 C101.669335,38.6575803 101.680099,38.6692419 101.690864,38.6806046 C101.753957,38.7484814 101.814956,38.813667 101.87147,38.8749655 C102.760148,39.9379703 104.654719,41.2216494 106.497858,39.8025156 C108.44685,38.3023483 107.515413,36.0343057 106.681156,34.9503697 C106.680857,34.9497716 106.678465,34.9473796 106.674577,34.9431933 C106.672484,34.9408011 106.668298,34.936914 106.665308,34.9336248 C106.662617,34.9306346 106.661122,34.9291395 106.657832,34.9258503 C106.652749,34.920767 106.646171,34.9135906 106.639293,34.9067133 C106.636303,34.9037231 106.63421,34.9013309 106.630921,34.8980418 C106.316953,34.5739075 104.571891,32.787282 102.886632,31.0631511 L102.894108,31.0580678 C101.978518,30.1000179 101.414572,28.8022849 101.414572,27.3723865 C101.414572,26.0629917 101.887019,24.8645324 102.668948,23.9357861 L102.665958,23.933095 L106.878806,19.0522434 C107.60452,18.0544243 108.289567,16.1736085 106.694013,14.8884342 C106.52618,14.7532299 106.357733,14.6437679 106.189693,14.557194 C106.73624,15.7082797 106.194895,17.0238999 105.628806,17.8022434 L101.415958,22.683095 L101.418948,22.6857861 C100.637019,23.6145324 100.164572,24.8129917 100.164572,26.1223865 C100.164572,27.5522849 100.728518,28.8500179 101.644108,29.8080678 L101.636632,29.8131511 C103.321891,31.537282 105.066953,33.3239075 105.380921,33.6480418 C105.38421,33.6513309 105.386303,33.6537231 105.389293,33.6567133 C105.396171,33.6635906 105.402749,33.670767 105.407832,33.6758503 C105.411122,33.6791395 105.412617,33.6806346 105.415308,33.6836248 C105.418298,33.686914 105.422484,33.6908011 105.424577,33.6931933 C105.428465,33.6973796 105.430857,33.6997716 105.431156,33.7003697 C106.265413,34.7843057 107.19685,37.0523483 105.247858,38.5525156 C103.84272,39.6344085 102.40769,39.1454402 101.411248,38.3809512 Z M98.2237232,35.0639396 C97.7714922,34.7470586 97.2216855,34.5604518 96.6273132,34.5604518 C95.2461546,34.5604518 94.1030133,35.5642512 93.8787507,36.8811213 C93.8374863,37.1346875 93.7755899,37.3981214 93.6885759,37.6591631 C93.6036552,37.9127293 93.4951121,38.1627075 93.3587604,38.3986317 C93.3533781,38.4073032 93.3488928,38.4159747 93.3435105,38.4249452 C93.299854,38.4991013 93.2535065,38.5717624 93.2041687,38.6426294 C93.2005805,38.6474137 93.1969923,38.6521979 93.1934041,38.6572812 C93.1455613,38.724859 93.0947286,38.7909418 93.0415035,38.8549313 C93.0361212,38.8615097 93.031038,38.8680881 93.0256556,38.8743674 C92.9718326,38.937759 92.9144213,38.9990575 92.8546181,39.0582628 C92.8435544,39.0690274 92.8324907,39.0800909 92.8214272,39.0905565 C92.7604277,39.1488648 92.6970362,39.20508 92.6300564,39.2583051 C92.624076,39.2627903 92.6168996,39.2675745 92.6106203,39.2726579 C92.5469297,39.3219956 92.4802489,39.3686423 92.4111761,39.4122987 C92.3992154,39.4200731 92.3875537,39.4281466 92.375294,39.435323 C92.302932,39.4801755 92.2269817,39.5211408 92.1480413,39.559116 C92.1315954,39.5671894 92.1151494,39.5743658 92.0981055,39.5824393 C92.0164738,39.6198163 91.9321511,39.6548013 91.8436422,39.684404 C91.8379608,39.6867961 91.8316815,39.6879922 91.8260002,39.6900853 C91.7404814,39.7184919 91.6513744,39.7424132 91.5598752,39.7633444 C91.5419341,39.7675307 91.5242921,39.7714179 91.5060522,39.7756041 C91.4115629,39.7953392 91.3134854,39.8105891 91.2118196,39.8216527 C91.1914864,39.8240449 91.1702562,39.825839 91.1499231,39.8276331 C91.0431741,39.8375006 90.9331359,39.844378 90.8189115,39.844378 C89.5038756,39.844378 88.6990063,39.1544205 88.2361345,38.3025408 C88.6073435,38.4861665 89.0481208,38.594378 89.5689115,38.594378 C89.6831359,38.594378 89.7931741,38.5875006 89.8999231,38.5776331 C89.9202562,38.575839 89.9414864,38.5740449 89.9618196,38.5716527 C90.0634854,38.5605891 90.1615629,38.5453392 90.2560522,38.5256041 C90.2742921,38.5214179 90.2919341,38.5175307 90.3098752,38.5133444 C90.4013744,38.4924132 90.4904814,38.4684919 90.5760002,38.4400853 C90.5816815,38.4379922 90.5879608,38.4367961 90.5936422,38.434404 C90.6821511,38.4048013 90.7664738,38.3698163 90.8481055,38.3324393 C90.8651494,38.3243658 90.8815954,38.3171894 90.8980413,38.309116 C90.9769817,38.2711408 91.052932,38.2301755 91.125294,38.185323 C91.1375537,38.1781466 91.1492154,38.1700731 91.1611761,38.1622987 C91.2302489,38.1186423 91.2969297,38.0719956 91.3606203,38.0226579 C91.3668996,38.0175745 91.374076,38.0127903 91.3800564,38.0083051 C91.4470362,37.95508 91.5104277,37.8988648 91.5714272,37.8405565 C91.5824907,37.8300909 91.5935544,37.8190274 91.6046181,37.8082628 C91.6644213,37.7490575 91.7218326,37.687759 91.7756556,37.6243674 C91.781038,37.6180881 91.7861212,37.6115097 91.7915035,37.6049313 C91.8447286,37.5409418 91.8955613,37.474859 91.9434041,37.4072812 C91.9469923,37.4021979 91.9505805,37.3974137 91.9541687,37.3926294 C92.0035065,37.3217624 92.049854,37.2491013 92.0935105,37.1749452 C92.0988928,37.1659747 92.1033781,37.1573032 92.1087604,37.1486317 C92.2451121,36.9127075 92.3536552,36.6627293 92.4385759,36.4091631 C92.5255899,36.1481214 92.5874863,35.8846875 92.6287507,35.6311213 C92.8530133,34.3142512 93.9961546,33.3104518 95.3773132,33.3104518 C96.1236592,33.3104518 96.7997363,33.6046844 97.3005894,34.0816161 C97.3786328,34.1644438 97.4563772,34.2472715 97.5338225,34.3295011 C97.5341215,34.3300991 97.5341215,34.3300991 97.5347196,34.3306972 C97.7674532,34.578261 97.9980735,34.8236878 98.2237232,35.0639396 Z M92.1573404,1.34113953 C93.5277934,2.01901339 93.9499166,3.72477649 93.9499166,4.80827822 C93.9499166,4.8187438 93.9496176,11.7977964 93.9493185,16.6119672 L93.9582891,16.6119672 L93.9582891,18.3319119 L93.9621763,18.3319119 C93.9621763,18.334603 93.9618773,18.3366962 93.9618773,18.3393874 C93.9618773,18.787858 94.0676787,19.2116755 94.2556867,19.5872227 C93.3403432,19.1289911 92.7118773,18.18241 92.7118773,17.0893874 C92.7118773,17.0866962 92.7121763,17.084603 92.7121763,17.0819119 L92.7082891,17.0819119 L92.7082891,15.3619672 L92.6993185,15.3619672 C92.6996176,10.5477964 92.6999166,3.5687438 92.6999166,3.55827822 C92.6999166,2.92237319 92.5545166,2.07213068 92.1573404,1.34113953 Z M66.3823548,36.9725802 C68.1998314,38.4842635 70.6090949,39.3548076 73.4935879,39.3548076 C76.7157931,39.3539106 79.5459873,38.1384072 81.4940818,35.9185064 C81.654953,35.6921506 81.7470501,35.5626763 81.7479471,35.5611813 C82.2765019,34.8171302 82.8179087,33.4638928 82.2932588,32.3127585 C82.4199993,32.3772936 82.5467061,32.453933 82.6729159,32.5436132 C84.416782,33.7824399 83.6961515,35.828313 82.9979471,36.8111813 C82.9970501,36.8126763 82.904953,36.9421506 82.7440818,37.1685064 C80.7959873,39.3884072 77.9657931,40.6039106 74.7435879,40.6048076 C71.1381788,40.6048076 68.2752305,39.2447388 66.3823548,36.9725802 Z M81.0412624,19.3660592 C83.0581803,21.0143176 84.2552731,23.4989305 84.683206,26.3970234 C84.9005912,27.8699803 83.8055916,29.9227308 81.2791985,29.9227308 L72.2043371,29.9227308 C70.5127989,29.9227308 70.4568828,30.9582261 70.5723033,31.7153366 C70.7004828,32.5539543 70.966856,33.3537737 71.3914502,34.0210637 C70.2011863,33.2963063 69.547834,31.9408773 69.3223033,30.4653366 C69.2068828,29.7082261 69.2627989,28.6727308 70.9543371,28.6727308 L80.0291985,28.6727308 C82.5555916,28.6727308 83.6505912,26.6199803 83.433206,25.1470234 C83.1026409,22.9083348 82.3131109,20.9163735 81.0412624,19.3660592 Z M28.7631404,36.9725096 C30.5806689,38.4842364 32.9900356,39.3548076 35.8747005,39.3548076 C39.0969056,39.3539106 41.9270999,38.1384072 43.8751944,35.9185064 C44.0357665,35.6921506 44.1278636,35.5626763 44.1290597,35.5611813 C44.657608,34.8171392 45.1990081,33.4639254 44.6743903,32.3128002 C44.8011227,32.3773266 44.927823,32.4539523 45.0540284,32.5436132 C46.7978945,33.7824399 46.077264,35.828313 45.3790597,36.8111813 C45.3778636,36.8126763 45.2857665,36.9421506 45.1251944,37.1685064 C43.1770999,39.3884072 40.3469056,40.6039106 37.1247005,40.6048076 C33.5190953,40.6048076 30.6560506,39.2447106 28.7631404,36.9725096 Z M43.4224067,19.3661258 C45.4393251,21.0143845 46.6363914,23.4989695 47.0643185,26.3970234 C47.2817038,27.8699803 46.1867041,29.9227308 43.660012,29.9227308 L34.5851506,29.9227308 C32.8936124,29.9227308 32.8376963,30.9582261 32.9531168,31.7153366 C33.0814105,32.5539508 33.3478087,33.3537671 33.7724061,34.0210554 C32.5821261,33.296296 31.9288486,31.9408717 31.7031168,30.4653366 C31.5876963,29.7082261 31.6436124,28.6727308 33.3351506,28.6727308 L42.410012,28.6727308 C44.9367041,28.6727308 46.0317038,26.6199803 45.8143185,25.1470234 C45.4837581,22.9083668 44.694246,20.9164305 43.4224067,19.3661258 Z M3.78165258,36.2406454 C5.89975017,38.7086549 9.04186585,40.2719721 12.5492256,40.2719721 C18.9278524,40.2719721 24.0984512,35.1013732 24.0984512,28.7218493 L24.1047306,28.7218493 C24.1047306,28.7218493 24.1059267,4.30921914 24.1059267,4.29367027 C24.1059267,3.3596543 23.6022095,1.89790901 22.3814229,1.2852367 C22.708966,1.88070298 22.8559267,2.53916979 22.8559267,3.04367027 C22.8559267,3.05921914 22.8547306,27.4718493 22.8547306,27.4718493 L22.8484512,27.4718493 C22.8484512,33.8513732 17.6778524,39.0219721 11.2992256,39.0219721 C8.42818368,39.0219721 5.80187987,37.9744443 3.78165258,36.2406454 Z"/>
    <path d="M23.6047438,28.4525851 C23.6047705,27.9065059 23.6047876,27.5589433 23.6049175,24.9071084 C23.6051044,21.092149 23.6051044,21.092149 23.6053287,16.5135661 C23.6055531,11.9303639 23.6055531,11.9303639 23.6057399,8.11491933 C23.6058894,5.06139385 23.6058894,5.06139385 23.6059267,4.29367027 C23.6059267,2.88189918 22.6243521,1.5 21.12443,1.5 C19.6053377,1.5 18.6423353,2.86568902 18.6423353,4.29367027 C18.6429671,5.38787867 18.6429671,5.38787867 18.6448662,8.60046288 C18.646783,11.8368954 18.646783,11.8368954 18.6474185,12.9080458 C18.6474185,15.8271135 16.6642226,17.6735207 13.8942033,17.6735207 L12.5492256,17.6735207 C6.44697922,17.6735207 1.5,22.620323 1.5,28.7218493 C1.5,34.8250981 6.44660854,39.7719721 12.5492256,39.7719721 C18.6518427,39.7719721 23.5984512,34.8250981 23.5984512,28.7218493 L23.5984512,28.2218493 L23.6047438,28.4525851 Z M12.5492256,40.7719721 C5.89431178,40.7719721 0.5,35.3773708 0.5,28.7218493 C0.5,22.0680303 5.89470248,16.6735207 12.5492256,16.6735207 L13.8942033,16.6735207 C16.127275,16.6735207 17.6474185,15.2582274 17.6474186,12.9083425 C17.6467832,11.8374883 17.6467832,11.8374883 17.644877,8.61898278 C17.6429673,5.38856464 17.6429673,5.38856464 17.6423353,4.29367027 C17.6423353,2.37317609 18.9631872,0.5 21.12443,0.5 C23.2644538,0.5 24.6059267,2.38857813 24.6059267,4.29367027 C24.6058894,5.06145087 24.6058894,5.06145087 24.6057399,8.11496828 C24.6055531,11.9304129 24.6055531,11.9304129 24.6053289,16.5077806 C24.6051044,21.092198 24.6051044,21.092198 24.6049175,24.9071574 L24.6047306,28.7218738 L24.6047061,29.2218493 C24.3261557,35.6454664 19.0366677,40.7719721 12.5492256,40.7719721 Z M44.9886439,36.4988106 C45.8549632,35.2778759 45.9480648,33.7920505 44.7644491,32.9512207 C43.5706208,32.1030814 42.1059187,32.6438571 41.2848662,33.922036 C40.2889084,35.4722131 38.9103815,36.3223327 37.1247005,36.3223327 C34.5132969,36.3223327 32.8744196,34.5072794 32.4588276,31.7906904 C32.2450357,30.3883047 32.8213377,29.4227308 34.5851506,29.4227308 L43.660012,29.4227308 C45.593011,29.4227308 46.7869753,27.942396 46.5696818,26.4700616 C45.7660228,21.0274349 42.3433543,17.7315599 36.8119288,17.7315599 C30.4036419,17.7315599 26.6747045,22.2358903 26.6747045,29.1183755 C26.6747045,35.6785949 30.7735634,40.1048076 37.1245613,40.1048077 C40.2063978,40.1039497 42.8987112,38.9475951 44.7173834,36.8792138 C44.9458556,36.5571404 44.9214407,36.5914942 44.9886439,36.4988106 Z M45.7866792,37.1007437 C45.7421894,37.1633327 45.5816122,37.3892788 45.5010057,37.4983031 C43.4555891,39.8291048 40.4875797,41.1038714 37.1247005,41.1048076 C30.2033844,41.1048076 25.6747045,36.2144465 25.6747045,29.1183755 C25.6747045,21.7209431 29.8051958,16.7315599 36.8119288,16.7315599 C42.8638745,16.7315599 46.6860051,20.4120989 47.5589606,26.324022 C47.8631524,28.3851617 46.2197507,30.4227308 43.660012,30.4227308 L34.5851506,30.4227308 C33.5280055,30.4227308 33.3159908,30.7779539 33.4473666,31.6397248 C33.7949096,33.9114998 35.0688017,35.3223327 37.1247005,35.3223327 C38.5483563,35.3223327 39.6219776,34.6602445 40.4435207,33.3815384 C41.5408545,31.6732567 43.6145662,30.9076315 45.3435953,32.135997 C47.080535,33.3699032 46.9493134,35.4640932 45.7866792,37.1007437 Z M82.5692068,36.5539232 C83.4738507,35.2778759 83.5669523,33.7920505 82.3833021,32.9511961 C81.1897487,32.1030999 79.7251313,32.6438443 78.9037536,33.922036 C77.9077208,35.4723301 76.5294672,36.3223327 74.7435879,36.3223327 C72.1323255,36.3223327 70.4931907,34.5069942 70.0780141,31.7906904 C69.8642222,30.3883047 70.4405242,29.4227308 72.2043371,29.4227308 L81.2791985,29.4227308 C83.2119453,29.4227308 84.4058576,27.942362 84.1885693,26.4700616 C83.3849157,21.0274724 79.9622837,17.7315599 74.4311153,17.7315599 C68.0226359,17.7315599 64.293891,22.2357529 64.293891,29.1183755 C64.293891,35.6785525 68.3927081,40.1048076 74.7434487,40.1048077 C77.8252852,40.1039497 80.5175986,38.9475951 82.3365251,36.8788557 C82.5469722,36.5823685 82.5469722,36.5823685 82.5692068,36.5539232 Z M83.4055666,37.1007437 C83.3550308,37.1724584 83.3550308,37.1724584 83.1198931,37.4983031 C81.0744764,39.8291049 78.1064672,41.1038714 74.7435879,41.1048076 C67.8225242,41.1048076 63.293891,36.2144 63.293891,29.1183755 C63.293891,21.7208092 67.4241843,16.7315599 74.4311153,16.7315599 C80.4828092,16.7315599 84.3048986,20.4121404 85.1778481,26.3240221 C85.4820327,28.3851135 83.8387013,30.4227308 81.2791985,30.4227308 L72.2043371,30.4227308 C71.1471919,30.4227308 70.9351773,30.7779539 71.0665632,31.6397909 C71.4137506,33.9112737 72.6878468,35.3223327 74.7435879,35.3223327 C76.1674301,35.3223327 77.2407857,34.6603681 78.0624555,33.3814645 C79.1602016,31.6732006 81.2337632,30.9076308 82.9624828,32.135997 C84.6994226,33.3699032 84.5682009,35.4640933 83.4055666,37.1007437 Z M99.2310543,35.3559306 C99.2296446,35.3527354 99.2296446,35.3527354 99.2068193,35.3129788 C99.1997859,35.3020535 99.1997859,35.3020535 99.1841686,35.2801121 C99.1636128,35.2556739 99.153098,35.2431733 99.1485271,35.2377279 L99.2310543,35.3559306 Z M101.422138,37.6604739 C101.480431,37.7229044 101.480431,37.7229044 101.516435,37.7614175 C101.583041,37.8327163 101.583041,37.8327163 101.615835,37.8680027 C101.721994,37.9810978 101.721994,37.9810978 101.823746,38.0901443 C101.931846,38.2059496 101.931846,38.2059496 102.025974,38.3067804 C102.150119,38.4400578 102.198124,38.4916273 102.255076,38.5542687 C103.367028,39.8843462 104.897824,40.4034325 106.192883,39.4062962 C107.551347,38.3606663 107.373699,36.6699564 106.233924,35.1739402 C106.280406,35.2408027 106.304142,35.2749454 106.313833,35.2891975 C105.985849,34.9507278 104.436883,33.3644679 102.529071,31.4126507 L102.111588,30.9855374 C101.357058,29.9463843 100.914572,28.6935378 100.914572,27.3723865 C100.914572,26.1441119 101.296399,24.9735071 101.989713,23.9971518 L102.287453,23.6063931 L106.474443,18.7581504 C107.361298,17.5387701 107.475418,16.1598587 106.380341,15.2778049 C105.332619,14.4337724 104.13479,14.7360992 103.146124,15.7274606 L99.3221016,20.3712505 L99.0642851,20.6800244 C98.4518778,21.2847992 97.6295846,21.6310083 96.7534983,21.6310083 C95.1031141,21.6310083 93.7362376,20.416021 93.4984897,18.8319119 L93.4582891,17.1119672 L93.4493185,16.6119361 C93.4494495,14.5045294 93.4495428,12.7307029 93.4497297,8.90870937 C93.4498792,5.68717494 93.4498792,5.68717494 93.4499166,4.80827822 C93.4499166,3.03113892 92.5312677,1.54933778 90.8245928,1.54933778 C89.1570094,1.54933778 88.2716719,2.88483156 88.2025582,4.62647599 L88.2025581,13.8093066 C88.2034552,15.3918402 88.2038308,16.0722407 88.2040533,16.6117611 L88.2042595,17.1119672 L88.2016031,36.3335305 C88.3080314,38.0529549 89.2041917,39.344378 90.8189115,39.344378 C90.9071764,39.344378 90.9988024,39.3394706 91.1059763,39.3295681 C91.2443625,39.3151594 91.3263251,39.3023527 91.3942047,39.2882745 C91.5301981,39.2572175 91.60292,39.2373231 91.6531494,39.2209131 C91.7488135,39.1888958 91.8150948,39.1621024 91.8840623,39.1305703 C91.9972171,39.0768248 92.0571877,39.0442372 92.122705,39.0038154 C92.1999741,38.9542902 92.2535952,38.9167554 92.2960197,38.8840366 C92.3761121,38.8209795 92.4252921,38.7775309 92.4778259,38.7273236 C92.5537928,38.6524996 92.6003207,38.6026313 92.6438427,38.5515403 C92.7023074,38.4808405 92.7452115,38.4250272 92.7849191,38.3689411 C92.8350481,38.2977294 92.8746086,38.2358722 92.9147641,38.1676973 C93.0401361,37.9507095 93.1364383,37.7333399 93.2142343,37.5010492 C93.2891616,37.2762673 93.3462602,37.0403548 93.3858472,36.79718 C93.653542,35.225276 95.0171134,34.0604518 96.6273132,34.0604518 C97.4826958,34.0604518 98.2868581,34.3900538 98.9144963,34.9887288 C99.0314122,35.1129705 99.0318611,35.1134474 99.1464757,35.2352808 C99.9953146,36.13845 100.788988,36.9841587 101.422138,37.6604739 Z M91.9710312,40.1684484 C91.9725774,40.1680779 91.9731625,40.1679378 91.9758091,40.1671018 C91.9749138,40.1673518 91.9710312,40.1684484 91.9710312,40.1684484 Z M91.6734903,40.250265 C91.6298439,40.2602101 91.6298439,40.2602101 91.6082765,40.2650428 C91.4982201,40.2880292 91.3841828,40.3058475 91.2702411,40.3182279 C91.2090419,40.3243703 91.2090419,40.3243703 91.1959453,40.3255105 C91.0622398,40.3378698 90.9407263,40.344378 90.8189115,40.344378 C88.564358,40.344378 87.3386171,38.5780087 87.2025582,36.3644202 L87.2025582,16.1119672 C87.2035812,15.6235623 87.2032054,14.9514566 87.2025583,13.8098565 L87.202947,4.60676152 C87.2909915,2.37550688 88.5016118,0.549337775 90.8245928,0.549337775 C93.210096,0.549337775 94.4499166,2.54919605 94.4499166,4.80827822 C94.4498792,5.68722663 94.4498792,5.68722663 94.4497297,8.90875713 C94.4495578,12.4253414 94.449465,14.2080158 94.4493493,16.1119672 L94.4582891,18.3280247 C94.4652836,19.6081913 95.4901215,20.6310083 96.7534983,20.6310083 C97.36326,20.6310083 97.934148,20.390648 98.3269095,20.0065057 L98.8497894,19.3712505 L102.405562,15.0571026 C103.744649,13.7101605 105.483581,13.271262 107.007659,14.4990414 C108.607411,15.7875974 108.445107,17.7487317 107.257311,19.3789453 L103.260264,24.009777 L103.051439,24.2578123 C102.321372,25.1249586 101.914572,26.2168718 101.914572,27.3723865 C101.914572,28.6334014 102.400107,29.8174696 103.25558,30.7126153 L103.663542,31.1394964 C105.376231,32.8951044 106.723343,34.2748172 106.984468,34.5444819 C107.024715,34.5858168 107.024715,34.5858168 107.050862,34.613937 C108.45984,36.441607 108.701089,38.7376206 106.802894,40.198689 C104.9898,41.5946887 102.901444,40.8865361 101.503862,39.2138818 C101.464813,39.1715268 101.418794,39.1220905 101.327887,39.0244763 C101.200203,38.8876393 101.200203,38.8876393 101.101682,38.7821723 C100.991731,38.664265 100.991731,38.664265 100.885661,38.5512585 C100.850367,38.5132966 100.850367,38.5132966 100.815599,38.4759792 C100.751748,38.4077596 100.751748,38.4077596 100.7138,38.3672471 C100.059494,37.6681465 99.26628,36.8229272 98.4311662,35.9342506 C98.3031472,35.798266 98.3031472,35.798266 98.2057888,35.6937108 C97.7810329,35.2892418 97.2228315,35.0604518 96.6273132,35.0604518 C95.5071264,35.0604518 94.5579206,35.8713062 94.3722586,36.9614328 C94.3248888,37.2525163 94.2552158,37.5403824 94.1626935,37.8179477 C94.0640402,38.1125181 93.9406389,38.3910548 93.783581,38.6623122 C93.7236798,38.7647419 93.6704585,38.8479591 93.6041675,38.9426311 C93.5463132,39.024123 93.4876046,39.1004962 93.428484,39.1715479 C93.3448559,39.2709423 93.2780477,39.3426475 93.2032942,39.416627 C93.0921706,39.5234424 93.0177096,39.5889017 92.9300551,39.6583061 C92.8406649,39.7269255 92.7609638,39.7827163 92.68367,39.8315207 C92.5526736,39.9136361 92.4616487,39.9630983 92.368377,40.0079502 C92.3194633,40.0308865 92.3194633,40.0308865 92.3062605,40.0370506 C92.2010984,40.0852017 92.1026096,40.1250145 92.0376628,40.1452251 C91.8813497,40.1982982 91.7803524,40.2258241 91.6734903,40.250265 Z M50.0586271,30.7373435 C50.0584963,32.8429656 50.0583562,34.413567 50.0582159,35.5305401 C50.0580664,36.5694063 50.0580664,36.5694063 50.0580291,36.720639 C50.0580291,38.4976136 50.9767289,39.9792805 52.6830539,39.9792805 C54.3141818,39.9792805 55.1924116,38.7133488 55.3000052,37.0148715 C55.2999735,36.04075 55.2999735,36.04075 55.2998564,34.8889033 C55.2997845,34.2711005 55.2997845,34.2711005 55.2997062,33.680715 C55.2994819,32.1413644 55.2994819,32.1413644 55.2994071,31.6962593 C55.2994071,25.9518044 56.3379334,23.2605159 59.7243074,23.102418 C59.7833918,23.1002388 59.7833918,23.1002388 59.9526721,23.0943481 C60.1078047,23.0891982 60.1078047,23.0891982 60.1780628,23.0877368 C61.89161,22.9732312 63.1680347,22.0795747 63.1680347,20.472065 C63.1680347,18.8137807 61.8512469,17.9304658 60.1212139,17.8509257 C59.9456103,17.8512267 59.9456103,17.8512267 59.7476252,17.8512265 L59.2476252,17.8512265 C58.7625347,17.8387116 58.6288825,17.8387298 57.9866387,17.8388172 C57.2752188,17.8389294 57.2752188,17.8389294 56.905096,17.8389667 C56.7160863,17.8388189 56.7160863,17.8388189 56.6004042,17.8387401 C56.4088285,17.8386677 56.4088285,17.8386677 55.884328,17.8386677 C52.8381615,17.8386677 50.0215491,21.1431278 50.0215491,24.5013167 L50.0215491,30.2373124 L50.0586271,30.7373435 Z M64.1680347,20.472065 C64.1680347,22.7163227 62.4200199,23.940151 60.2221797,24.086508 C60.1396121,24.0887005 60.1396121,24.0887005 60.0128202,24.0928847 C59.8190913,24.0996016 59.8190913,24.0996016 59.7658334,24.1015424 C57.1568597,24.2233724 56.2994071,26.4454173 56.2994071,31.6962593 C56.2994819,32.1411779 56.2994819,32.1411779 56.2997061,33.6805792 C56.2997844,34.2709751 56.2997844,34.2709751 56.2998564,34.888792 C56.2999735,36.0406708 56.2999735,36.0406708 56.2990231,37.0461937 C56.1613932,39.238879 54.9540039,40.9792805 52.6830539,40.9792805 C50.2979427,40.9792805 49.0580291,38.9795643 49.0580291,36.720639 C49.0580664,36.5691919 49.0580664,36.5691919 49.0582159,35.5304145 C49.0583449,34.5037267 49.0584737,33.0937628 49.0585952,31.2373124 L49.0215491,24.5013167 C49.0215491,20.6231189 52.24729,16.8386677 55.884328,16.8386677 C56.4088485,16.8386677 56.4088485,16.8386677 56.6009712,16.8387403 C56.7169029,16.8388193 56.7169029,16.8388193 56.9054704,16.8389668 C57.275041,16.8389294 57.275041,16.8389294 57.9864926,16.8388173 C58.7975552,16.8387068 58.7975552,16.8387068 59.7184673,16.8386678 L60.2476252,16.8386677 C62.4213596,16.9913328 64.1680347,18.1989077 64.1680347,20.472065 Z"/>
  </g>
</svg>
