<svg xmlns="http://www.w3.org/2000/svg" width="109" height="42" viewBox="0 0 109 42"><g fill="#222"><path d="M50.1 38.938c.463.851 1.268 1.541 2.583 1.541 2.308 0 3.03-2.068 3.117-3.464v-5.319c0-4.429.527-7.934 3.948-8.094 0 0 .352-.013.463-.015 1.397-.094 3.457-.842 3.457-3.115 0-1.332-.69-2.136-1.54-2.594.182.373.29.817.29 1.344 0 2.273-2.06 3.021-3.457 3.115-.11.002-.463.015-.463.015-3.42.16-3.949 3.665-3.949 8.094l.001 5.319c-.088 1.396-.81 3.464-3.117 3.464-.52 0-.961-.108-1.332-.291zm51.311-.557l.046.049.011.012.19.204.033.035.18.194c.89 1.063 2.784 2.347 4.627.928 1.949-1.5 1.017-3.769.183-4.853l-.006-.007-.01-.01a.172.172 0 0 0-.007-.007l-.019-.02-.008-.008c-.314-.324-2.06-2.11-3.744-3.835l.007-.005a5.318 5.318 0 0 1-1.48-3.686c0-1.309.473-2.507 1.255-3.436l-.003-.003 4.213-4.88c.726-.999 1.41-2.88-.185-4.165a2.982 2.982 0 0 0-.504-.33c.546 1.15.005 2.466-.561 3.244l-4.213 4.881.003.003a5.318 5.318 0 0 0-1.254 3.436c0 1.43.564 2.728 1.48 3.686l-.008.005c1.685 1.724 3.43 3.51 3.744 3.835l.008.009.019.019a.172.172 0 0 1 .007.008l.01.01.006.006c.834 1.084 1.766 3.352-.183 4.853-1.405 1.081-2.84.592-3.837-.172zm-3.187-3.317a2.79 2.79 0 0 0-4.345 1.817 5.018 5.018 0 0 1-.19.778 4.045 4.045 0 0 1-.33.74c-.006.008-.01.017-.015.026-.044.074-.09.147-.14.218l-.01.014a3.21 3.21 0 0 1-.152.198l-.016.02a2.91 2.91 0 0 1-.171.183l-.034.033a2.782 2.782 0 0 1-.19.167l-.02.015c-.064.049-.13.096-.2.14l-.036.022a2.432 2.432 0 0 1-.227.124l-.05.023a2.564 2.564 0 0 1-.254.102l-.018.006a2.89 2.89 0 0 1-.266.073l-.054.013c-.094.02-.193.035-.294.046l-.062.006a3.58 3.58 0 0 1-.331.016c-1.315 0-2.12-.69-2.583-1.541.371.183.812.291 1.333.291.114 0 .224-.006.33-.016l.063-.006c.101-.011.2-.027.294-.046l.054-.013c.091-.02.18-.045.266-.073l.018-.006c.088-.03.172-.064.254-.102l.05-.023c.079-.038.155-.079.227-.124.013-.007.024-.015.036-.023.07-.043.136-.09.2-.14l.02-.014c.066-.053.13-.11.19-.167l.034-.033c.06-.059.117-.12.17-.184l.017-.02a3.21 3.21 0 0 0 .151-.197l.011-.014c.05-.071.096-.144.14-.218l.015-.026c.136-.236.245-.486.33-.74.087-.26.148-.524.19-.778a2.79 2.79 0 0 1 2.748-2.32 2.78 2.78 0 0 1 1.924.77l.233.249.69.734zM92.157 1.34c1.37.678 1.793 2.384 1.793 3.467v11.804h.008v1.72h.004v.007c0 .449.106.873.294 1.248a2.792 2.792 0 0 1-1.544-2.498v-.007h-.004v-1.72H92.7V3.558c0-.636-.144-1.486-.542-2.217zM66.382 36.973c1.818 1.511 4.227 2.382 7.112 2.382 3.222-.001 6.052-1.217 8-3.436l.254-.358c.529-.744 1.07-2.097.545-3.248.127.064.254.14.38.23 1.744 1.24 1.023 3.285.325 4.268 0 .002-.093.131-.254.358-1.948 2.22-4.778 3.435-8 3.436-3.606 0-6.469-1.36-8.362-3.632zm14.66-17.607c2.016 1.648 3.213 4.133 3.641 7.031.218 1.473-.877 3.526-3.404 3.526h-9.075c-1.691 0-1.747 1.035-1.632 1.792.128.839.395 1.639.82 2.306-1.19-.725-1.844-2.08-2.07-3.556-.115-.757-.06-1.792 1.632-1.792h9.075c2.527 0 3.622-2.053 3.404-3.526-.33-2.239-1.12-4.23-2.392-5.78zM28.762 36.973c1.818 1.511 4.227 2.382 7.112 2.382 3.222-.001 6.052-1.217 8-3.436l.254-.358c.529-.744 1.07-2.097.545-3.248.127.064.254.141.38.23 1.744 1.24 1.023 3.285.325 4.268l-.254.358c-1.948 2.22-4.778 3.435-8 3.436-3.606 0-6.469-1.36-8.362-3.632zm14.66-17.607c2.016 1.648 3.213 4.133 3.641 7.031.218 1.473-.877 3.526-3.404 3.526h-9.075c-1.691 0-1.747 1.035-1.632 1.792.128.839.395 1.639.82 2.306-1.19-.725-1.844-2.08-2.07-3.556-.115-.757-.06-1.792 1.632-1.792h9.075c2.527 0 3.622-2.053 3.404-3.526-.33-2.239-1.12-4.23-2.392-5.78zM3.781 36.241a11.523 11.523 0 0 0 8.767 4.031c6.379 0 11.55-5.17 11.55-11.55h.006V4.294c0-.934-.503-2.396-1.724-3.009.328.596.475 1.254.475 1.759l-.001 24.428h-.007c0 6.38-5.17 11.55-11.549 11.55a11.504 11.504 0 0 1-7.517-2.781z"/><path d="M23.605 28.453v-3.546-8.393-8.4-3.82c0-1.412-.98-2.794-2.48-2.794-1.52 0-2.483 1.366-2.483 2.794l.003 4.306.002 4.308c0 2.92-1.983 4.766-4.753 4.766H12.55C6.447 17.674 1.5 22.62 1.5 28.722c0 6.103 4.947 11.05 11.05 11.05 6.102 0 11.048-4.947 11.048-11.05v-.5l.007.23zM12.549 40.772C5.894 40.772.5 35.377.5 28.722c0-6.654 5.395-12.048 12.05-12.048h1.344c2.233 0 3.753-1.416 3.753-3.766l-.002-4.289-.003-4.325c0-1.92 1.321-3.794 3.482-3.794 2.14 0 3.482 1.889 3.482 3.794v12.214l-.001 8.4v4.314c-.279 6.423-5.568 11.55-12.056 11.55zm32.44-4.273c.866-1.221.96-2.707-.225-3.548-1.193-.848-2.658-.307-3.48.971-.995 1.55-2.374 2.4-4.16 2.4-2.61 0-4.25-1.815-4.665-4.531-.214-1.403.362-2.368 2.126-2.368h9.075c1.933 0 3.127-1.48 2.91-2.953-.804-5.443-4.227-8.738-9.758-8.738-6.408 0-10.137 4.504-10.137 11.386 0 6.56 4.099 10.987 10.45 10.987 3.081-.001 5.774-1.157 7.592-3.226.229-.322.204-.288.272-.38zm.798.602c-.045.062-.205.288-.286.397-2.045 2.331-5.013 3.606-8.376 3.607-6.922 0-11.45-4.89-11.45-11.987 0-7.397 4.13-12.386 11.137-12.386 6.052 0 9.874 3.68 10.747 9.592.304 2.061-1.34 4.099-3.899 4.099h-9.075c-1.057 0-1.269.355-1.138 1.217.348 2.271 1.622 3.682 3.678 3.682 1.423 0 2.497-.662 3.319-1.94 1.097-1.709 3.17-2.474 4.9-1.246 1.737 1.234 1.605 3.328.443 4.965zm36.782-.547c.905-1.276.998-2.762-.186-3.603-1.193-.848-2.658-.307-3.48.971-.995 1.55-2.374 2.4-4.16 2.4-2.61 0-4.25-1.815-4.665-4.531-.214-1.403.363-2.368 2.126-2.368h9.075c1.933 0 3.127-1.48 2.91-2.953-.804-5.443-4.227-8.738-9.758-8.738-6.408 0-10.137 4.504-10.137 11.386 0 6.56 4.099 10.987 10.45 10.987 3.081-.001 5.774-1.157 7.593-3.226.21-.297.21-.297.232-.325zm.837.547l-.286.397c-2.046 2.331-5.014 3.606-8.376 3.607-6.921 0-11.45-4.89-11.45-11.987 0-7.397 4.13-12.386 11.137-12.386 6.052 0 9.874 3.68 10.747 9.592.304 2.061-1.34 4.099-3.899 4.099h-9.075c-1.057 0-1.269.355-1.137 1.217.347 2.271 1.62 3.682 3.677 3.682 1.423 0 2.497-.662 3.318-1.94 1.098-1.709 3.172-2.474 4.9-1.246 1.737 1.234 1.606 3.328.444 4.965zm15.825-1.745l-.024-.043-.023-.033-.035-.042.082.118zm2.191 2.304l.094.101.1.107.208.222.202.217.23.247c1.111 1.33 2.642 1.85 3.937.852 1.358-1.045 1.18-2.736.04-4.232.047.067.071.1.08.115-.327-.338-1.876-1.925-3.784-3.876l-.417-.427a6.15 6.15 0 0 1-1.197-3.614c0-1.228.381-2.398 1.075-3.375l.297-.39 4.187-4.849c.887-1.22 1.001-2.598-.094-3.48-1.047-.844-2.245-.542-3.234.45l-3.824 4.643-.258.309a3.28 3.28 0 0 1-2.31.951 3.293 3.293 0 0 1-3.256-2.8l-.04-1.719-.009-.5V8.909v-4.1c0-1.778-.918-3.26-2.624-3.26-1.668 0-2.553 1.336-2.622 3.077v9.183l.001 2.803v.5l-.002 19.222c.106 1.719 1.002 3.01 2.617 3.01a3.083 3.083 0 0 0 .575-.056 2.199 2.199 0 0 0 1.084-.561 2.634 2.634 0 0 0 .307-.358c.05-.071.09-.133.13-.201.125-.217.221-.435.3-.667.074-.225.131-.46.17-.704a3.29 3.29 0 0 1 3.242-2.737c.856 0 1.66.33 2.287.929l.232.246c.85.903 1.643 1.75 2.276 2.425zm-9.451 2.508h.005-.005zm-.298.082l-.065.015c-.11.023-.224.04-.338.053l-.074.008a4.043 4.043 0 0 1-.377.018c-2.255 0-3.48-1.766-3.616-3.98V16.112 4.607C87.29 2.376 88.502.549 90.825.549c2.385 0 3.625 2 3.625 4.26v11.303l.008 2.216a2.301 2.301 0 0 0 2.295 2.303c.61 0 1.181-.24 1.574-.624l.523-.636 3.556-4.314c1.339-1.347 3.078-1.786 4.602-.558 1.6 1.289 1.437 3.25.25 4.88l-3.998 4.63-.209.249a4.817 4.817 0 0 0-1.136 3.114c0 1.261.485 2.445 1.34 3.34l.409.427c1.712 1.756 3.06 3.136 3.32 3.405l.067.07c1.409 1.828 1.65 4.124-.248 5.585-1.813 1.396-3.902.688-5.3-.985a55.966 55.966 0 0 0-.175-.19l-.226-.242-.216-.23-.07-.076-.102-.109-2.283-2.433-.225-.24a2.289 2.289 0 0 0-3.834 1.268 5.515 5.515 0 0 1-.21.856 4.557 4.557 0 0 1-.378.844 3.862 3.862 0 0 1-.356.51 3.455 3.455 0 0 1-.498.486 3.26 3.26 0 0 1-.562.35l-.062.03a3.43 3.43 0 0 1-.633.213zM50.06 30.737v4.794l-.001 1.19c0 1.777.919 3.258 2.625 3.258 1.631 0 2.51-1.266 2.617-2.964v-2.126-1.208-1.985c0-5.744 1.038-8.435 4.424-8.594l.229-.008.225-.006c1.714-.115 2.99-1.008 2.99-2.616 0-1.658-1.317-2.542-3.047-2.621h-.873c-.485-.012-.62-.012-1.261-.012H55.884c-3.046 0-5.862 3.304-5.862 6.662v5.736l.037.5zm14.109-10.265c0 2.244-1.748 3.468-3.946 3.615l-.21.006-.246.009c-2.61.121-3.467 2.343-3.467 7.594v5.35c-.138 2.193-1.345 3.933-3.616 3.933-2.385 0-3.625-2-3.625-4.258v-1.19-4.294l-.036-6.736c0-3.878 3.225-7.662 6.862-7.662h4.364c2.173.152 3.92 1.36 3.92 3.633z"/></g></svg>