<svg xmlns="http://www.w3.org/2000/svg" width="29" height="29" viewBox="0 0 29 29"><g fill="none" fill-rule="evenodd"><path fill="#FFF" d="M-1344-29H96v82h-1440z"/><path fill="#222" d="M28.911 6.491a.106.106 0 0 1 .027.14l-8.791 14.285-6.32-10.27 5.036-8.185a1.002 1.002 0 0 1 1.273-.363l8.748 4.374.01.005c.007.004.012.01.017.014zm-17.859 2.29l8.281 13.458-8.28-4.14V8.781zm9.525 14.08L29 9.174v16.401c0 .827-.72 1.137-1.606.694l-6.817-3.408zM9.615 6.504a.094.094 0 0 1 .052.084v18.987c0 .608-.328.97-.796.97-.166 0-.35-.046-.543-.142L.803 22.64C.361 22.42 0 21.835 0 21.34V2.895c0-.486.262-.775.637-.775a.98.98 0 0 1 .434.113l8.544 4.272z"/></g></svg>