<svg xmlns="http://www.w3.org/2000/svg" width="29" height="29" viewBox="0 0 29 29">
  <g fill="none" fill-rule="evenodd" transform="translate(-1344 -29)">
    <rect width="1440" height="82" fill="#FFF"/>
    <path fill="#222" d="M1372.91133,35.491018 C1372.95345,35.5242705 1372.9673,35.5830164 1372.93821,35.6306782 L1364.14682,49.9164772 L1357.82636,39.6459094 L1362.86272,31.4613775 C1363.04339,31.1682019 1363.37675,31 1363.71176,31 C1363.79268,31 1363.87332,31.0124697 1363.95229,31.0326982 C1364.01519,31.0487702 1364.07726,31.0687217 1364.13629,31.0983718 L1372.88445,35.4724521 L1372.89442,35.4774399 C1372.90135,35.4807652 1372.90578,35.4865844 1372.91133,35.491018 Z M1355.05228,37.7815564 L1363.33324,51.2385384 L1355.05228,47.0980565 L1355.05228,37.7815564 Z M1364.57744,51.860636 L1373,38.1739351 L1373,54.57542 C1373,55.4017429 1372.28092,55.712376 1371.39391,55.2687332 L1364.57744,51.860636 Z M1353.61466,35.504319 C1353.64653,35.5201139 1353.66676,35.5528121 1353.66676,35.5882814 L1353.66676,54.57542 C1353.66676,55.182831 1353.33867,55.5447283 1352.87092,55.5447283 C1352.70493,55.5447283 1352.52121,55.4990062 1352.32835,55.4025742 L1344.80305,51.6400615 C1344.36134,51.41921 1344,50.8345214 1344,50.3407228 L1344,31.8939362 C1344,31.4081736 1344.26242,31.1186003 1344.63651,31.1186003 C1344.76952,31.1186003 1344.91638,31.155178 1345.07073,31.2322128 L1353.61466,35.504319 Z"/>
  </g>
</svg>
